<svg xmlns="http://www.w3.org/2000/svg" width="18" height="18" viewBox="0 0 18 18" fill="none"><path d="M14.2 7.50004C14.4092 8.31661 14.5101 9.15715 14.5 10C14.5 14.374 12.374 16.5 8 16.5C3.626 16.5 1.5 14.374 1.5 10C1.5 5.62604 3.626 3.50004 8 3.50004C8.84288 3.48997 9.68343 3.59084 10.5 3.80004V2.26554C9.67919 2.08399 8.84063 1.99493 8 2.00004C2.841 2.00004 0 4.84104 0 10C0 15.159 2.841 18 8 18C13.159 18 16 15.159 16 10C16.0051 9.15941 15.916 8.32085 15.7345 7.50004H14.2Z" fill="black"/><path d="M6.5 8.00006C6.51079 7.866 6.49232 7.73119 6.44589 7.60497C6.39945 7.47874 6.32614 7.36412 6.23104 7.26902C6.13594 7.17391 6.02131 7.10061 5.89509 7.05417C5.76886 7.00773 5.63406 6.98927 5.5 7.00006C5.36594 6.98927 5.23113 7.00773 5.10491 7.05417C4.97868 7.10061 4.86406 7.17391 4.76895 7.26902C4.67385 7.36412 4.60055 7.47874 4.55411 7.60497C4.50767 7.73119 4.48921 7.866 4.5 8.00006C4.48921 8.13412 4.50767 8.26892 4.55411 8.39515C4.60055 8.52137 4.67385 8.636 4.76895 8.7311C4.86406 8.8262 4.97868 8.89951 5.10491 8.94594C5.23113 8.99238 5.36594 9.01085 5.5 9.00006C5.63406 9.01085 5.76886 8.99238 5.89509 8.94594C6.02131 8.89951 6.13594 8.8262 6.23104 8.7311C6.32614 8.636 6.39945 8.52137 6.44589 8.39515C6.49232 8.26892 6.51079 8.13412 6.5 8.00006Z" fill="black"/><path d="M9.5 8.00006C9.48921 8.13412 9.50767 8.26892 9.55411 8.39515C9.60055 8.52137 9.67385 8.636 9.76895 8.7311C9.86406 8.8262 9.97868 8.89951 10.1049 8.94594C10.2311 8.99238 10.3659 9.01085 10.5 9.00006C10.6341 9.01085 10.7689 8.99238 10.8951 8.94594C11.0213 8.89951 11.1359 8.8262 11.231 8.7311C11.3261 8.636 11.3994 8.52137 11.4459 8.39515C11.4923 8.26892 11.5108 8.13412 11.5 8.00006C11.5108 7.866 11.4923 7.73119 11.4459 7.60497C11.3994 7.47874 11.3261 7.36412 11.231 7.26902C11.1359 7.17391 11.0213 7.10061 10.8951 7.05417C10.7689 7.00773 10.6341 6.98927 10.5 7.00006C10.3659 6.98927 10.2311 7.00773 10.1049 7.05417C9.97868 7.10061 9.86406 7.17391 9.76895 7.26902C9.67385 7.36412 9.60055 7.47874 9.55411 7.60497C9.50767 7.73119 9.48921 7.866 9.5 8.00006Z" fill="black"/><path d="M4.5 10.75C4.50106 11.6116 4.84381 12.4377 5.45307 13.0469C6.06234 13.6562 6.88837 13.9989 7.75 14H8.25C9.11163 13.9989 9.93766 13.6562 10.5469 13.0469C11.1562 12.4377 11.4989 11.6116 11.5 10.75V10.5H10V10.75C10 11.2141 9.81563 11.6592 9.48744 11.9874C9.15925 12.3156 8.71413 12.5 8.25 12.5H7.75C7.28587 12.5 6.84075 12.3156 6.51256 11.9874C6.18437 11.6592 6 11.2141 6 10.75V10.5H4.5V10.75Z" fill="black"/><path d="M15.5 2.5V0.5H14V2.5H12V4H14V6H15.5V4H17.5V2.5H15.5Z" fill="black"/></svg>