<svg xmlns="http://www.w3.org/2000/svg" width="17" height="14" viewBox="0 0 17 14" fill="none"><path d="M14.75 14H2.75C2.15326 14 1.58097 13.763 1.15901 13.341C0.737053 12.919 0.5 12.3468 0.5 11.75V1.2896e-05H5.073C5.49112 -0.00140629 5.90128 0.114336 6.25698 0.334119C6.61268 0.553903 6.8997 0.868938 7.0855 1.24351L7.4635 2.00001H17V11.75C17 12.0455 16.9418 12.3381 16.8287 12.6111C16.7157 12.884 16.5499 13.1321 16.341 13.341C16.1321 13.5499 15.884 13.7157 15.611 13.8287C15.3381 13.9418 15.0455 14 14.75 14ZM2 1.50001V11.75C2 11.9489 2.07902 12.1397 2.21967 12.2803C2.36032 12.421 2.55109 12.5 2.75 12.5H14.75C14.9489 12.5 15.1397 12.421 15.2803 12.2803C15.421 12.1397 15.5 11.9489 15.5 11.75V3.50001H6.5365L5.744 1.91451C5.68215 1.78956 5.58647 1.68446 5.46785 1.61119C5.34923 1.53791 5.21243 1.49939 5.073 1.50001H2Z" fill="black"/></svg>