<svg xmlns="http://www.w3.org/2000/svg" width="15" height="15" viewBox="0 0 15 15" fill="none"><path d="M14.0219 2.66153L13.3679 1.99503C13.0596 1.67922 12.6914 1.42827 12.2847 1.25693C11.878 1.08558 11.4412 0.997314 10.9999 0.997314C10.5586 0.997314 10.1218 1.08558 9.71509 1.25693C9.30841 1.42827 8.94012 1.67922 8.63189 1.99503L2.68939 8.04502V10.1C2.69334 10.8979 2.38148 11.6648 1.82189 12.2335L0.546387 13.5265L3.75739 14.597L3.97489 14.3765C4.24396 14.0991 4.56602 13.8786 4.92194 13.728C5.27787 13.5775 5.66042 13.4999 6.04689 13.5H8.07439L14.0244 7.44553C14.647 6.80479 14.9951 5.94644 14.9946 5.05302C14.9942 4.1596 14.6452 3.30161 14.0219 2.66153ZM7.44539 12H6.04539C5.26671 11.9985 4.50186 12.2057 3.83039 12.6L3.58889 12.354C3.9829 11.6666 4.18978 10.8879 4.18889 10.0955V8.65702L4.52089 8.31903L7.79039 11.65L7.44539 12ZM8.84189 10.5785L5.57289 7.25002L8.84289 3.92153L12.1114 7.25002L8.84189 10.5785ZM13.1419 6.15802L9.91489 2.87153C10.2689 2.61487 10.7022 2.49161 11.1383 2.52354C11.5743 2.55547 11.9851 2.74054 12.2979 3.04603L12.9499 3.71202C13.2619 4.03347 13.4519 4.45385 13.4868 4.90048C13.5218 5.34712 13.3996 5.79193 13.1414 6.15802H13.1419Z" fill="black"/></svg>