<svg xmlns="http://www.w3.org/2000/svg" width="14" height="14" viewBox="0 0 14 14" fill="none"><path d="M9.9 6.5075C10.3239 5.74163 10.5313 4.8748 10.5 4C10.5 1.458 9.2245 0 7 0C4.7755 0 3.5 1.458 3.5 4C3.46867 4.8748 3.67608 5.74163 4.1 6.5075C3.00033 6.54634 1.95858 7.01017 1.19391 7.80141C0.429237 8.59266 0.00125628 9.64964 0 10.75V14H14V10.75C13.9987 9.64964 13.5708 8.59266 12.8061 7.80141C12.0414 7.01017 10.9997 6.54634 9.9 6.5075ZM7 1.5C7.931 1.5 9 1.784 9 4C9 6.216 7.931 6.5 7 6.5C6.069 6.5 5 6.216 5 4C5 1.784 6.069 1.5 7 1.5ZM12.5 12.5H1.5V10.75C1.50079 10.0209 1.79078 9.32189 2.30633 8.80633C2.82189 8.29078 3.5209 8.00079 4.25 8H9.75C10.4791 8.00079 11.1781 8.29078 11.6937 8.80633C12.2092 9.32189 12.4992 10.0209 12.5 10.75V12.5Z" fill="black"/></svg>