<svg xmlns="http://www.w3.org/2000/svg" width="16" height="16" viewBox="0 0 16 16" fill="none"><path d="M16 12.5H14V10.5H12.5V12.5H10.5V14H12.5V16H14V14H16V12.5Z" fill="black"/><path d="M4.25 8H9.75C10.1552 7.99996 10.5554 8.0896 10.9218 8.26249C11.2883 8.43538 11.6119 8.68724 11.8695 9H13.6195C13.2924 8.28022 12.771 7.66595 12.1139 7.22624C11.4568 6.78654 10.6901 6.53885 9.9 6.511C10.3247 5.74417 10.5321 4.876 10.5 4C10.5 1.7125 9.464 0.3065 7.636 0.0475001C7.579 0.0390001 7.5225 0.0310001 7.467 0.0250001C7.42433 0.0206668 7.38117 0.0169999 7.3375 0.0139999C7.221 0.00549994 7.1065 0 7 0C6.8935 0 6.779 0.00549994 6.6625 0.0139999C6.61883 0.0169999 6.57567 0.0206668 6.533 0.0250001C6.4775 0.0310001 6.421 0.0390001 6.364 0.0475001C4.536 0.3065 3.5 1.7125 3.5 4C3.46867 4.8748 3.67608 5.74163 4.1 6.5075C3.00033 6.54634 1.95858 7.01017 1.19391 7.80141C0.429237 8.59266 0.00125628 9.64964 0 10.75V14H9V12.5H1.5V10.75C1.50079 10.0209 1.79078 9.32189 2.30633 8.80633C2.82189 8.29078 3.5209 8.00079 4.25 8ZM6.8225 6.496H6.791C5.9095 6.446 5.072 6.046 5.072 4.002C5.072 1.958 5.9095 1.5565 6.791 1.508H6.8225C6.8815 1.5 6.941 1.5 7 1.5C7.059 1.5 7.1185 1.5 7.1775 1.504H7.209C8.0905 1.554 8.928 1.954 8.928 3.998C8.928 6.042 8.0905 6.4435 7.209 6.492H7.1775C7.1185 6.5 7.059 6.5 7 6.5C6.941 6.5 6.8815 6.5 6.8225 6.496Z" fill="black"/></svg>